# xmcd
#
# Track frame offsets:
#	151
#	13962
#	24453
#	35654
#	48556
#	62336
#	71783
#	82987
#	94126
#	109808
#	121486
#	131389
#	144070
#	157451
#	174042
#	185063
#	205407
#	218737
#	233191
#	247756
#
# Disc length: 3435 seconds
#
# Revision: 1
# Processed by: cddbd v1.5.2PL0 Copyright (c) Steve Scherf et al.
# Submitted via: audiograbber 1.83.01
#
DISCID=180d6914
DTITLE=Various Artist - Soul Hits volume 2
DYEAR=1900
DGENRE=Soul
TTITLE0=The Ohio Players - Mother-In-Law
TTITLE1=The Whispers - Needle in a haystack
TTITLE2=Clarence Carter - Slip away
TTITLE3=The Detroit Emeralds - You want it, you got it
TTITLE4=George McCrae - I can't leave you alone
TTITLE5=The Drifters - Up on the roof
TTITLE6=The Flirtations - You keep me hanging on
TTITLE7=Rufus Thomas - Walking the dog
TTITLE8=Eddie Floyd - Knock on wood
TTITLE9=The Foundations - Baby, now that I've found you
TTITLE10=Jimy Jones - Good Timin'
TTITLE11=Tavares - More than a women
TTITLE12=The Platters - Twilight Time
TTITLE13=Mary Wells - Two lovers
TTITLE14=Lloyd Prici - I'm gonna get married
TTITLE15=Rose Royce - Wishing on a star
TTITLE16=Sam and Dave - Soul an
TTITLE17=Percy Sledge - Warm and tender love
TTITLE18=Sister Sledge - We are family
TTITLE19=The Tams - Hey girl don't bother me
EXTD=
EXTT0=
EXTT1=
EXTT2=
EXTT3=
EXTT4=
EXTT5=
EXTT6=
EXTT7=
EXTT8=
EXTT9=
EXTT10=
EXTT11=
EXTT12=
EXTT13=
EXTT14=
EXTT15=
EXTT16=
EXTT17=
EXTT18=
EXTT19=
PLAYORDER=
